<svg xmlns="http://www.w3.org/2000/svg" width="128" height="128" viewBox="0 0 24 24"><path d="M19 12a1 1 0 0 0-1 1v8c0 .551-.448 1-1 1H3c-.552 0-1-.449-1-1V7c0-.551.448-1 1-1h8a1 1 0 1 0 0-2H3C1.346 4 0 5.346 0 7v14c0 1.654 1.346 3 3 3h14c1.654 0 3-1.346 3-3v-8a1 1 0 0 0-1-1z"/><path d="M9.376 11.089a.506.506 0 0 0-.137.255l-.707 3.536a.501.501 0 0 0 .589.588l3.535-.707a.497.497 0 0 0 .256-.137l7.912-7.912-3.535-3.535zM23.268.732a2.502 2.502 0 0 0-3.535 0l-1.384 1.384 3.535 3.535 1.384-1.384C23.74 3.796 24 3.168 24 2.5s-.26-1.296-.732-1.768z"/></svg>