<svg xmlns="http://www.w3.org/2000/svg" width="128" height="128" viewBox="0 0 24 24"><path d="M17.867 15.161a.75.75 0 0 1-.53-1.281l2.665-2.665a5.038 5.038 0 0 0 1.499-3.608A5.113 5.113 0 0 0 16.394 2.5c-1.37 0-2.65.531-3.606 1.496l-2.667 2.667A.75.75 0 1 1 9.06 5.602l2.665-2.665A6.52 6.52 0 0 1 16.393 1 6.615 6.615 0 0 1 23 7.607a6.527 6.527 0 0 1-1.94 4.672l-2.663 2.662a.746.746 0 0 1-.53.22zM7.607 23A6.615 6.615 0 0 1 1 16.393c0-1.773.689-3.433 1.94-4.672l2.663-2.662a.75.75 0 1 1 1.061 1.061l-2.665 2.665A5.03 5.03 0 0 0 2.5 16.393 5.113 5.113 0 0 0 7.607 21.5c1.37 0 2.65-.531 3.606-1.496l2.667-2.667a.75.75 0 1 1 1.061 1.061l-2.665 2.665A6.523 6.523 0 0 1 7.607 23z"/><path d="M8 16.75a.75.75 0 0 1-.53-1.281l8-8a.75.75 0 1 1 1.061 1.061l-8 8a.748.748 0 0 1-.531.22z"/></svg>