<svg xmlns="http://www.w3.org/2000/svg" xml:space="preserve" width="128" height="128" viewBox="0 0 24 24"><path d="M7.25 10H.75A.75.75 0 0 1 0 9.25v-6.5a.75.75 0 0 1 1.5 0V8.5h5.75a.75.75 0 0 1 0 1.5zM23.25 22a.75.75 0 0 1-.75-.75V15.5h-5.75a.75.75 0 0 1 0-1.5h6.5a.75.75 0 0 1 .75.75v6.5a.75.75 0 0 1-.75.75z"/><path d="M12 24C5.383 24 0 18.617 0 12a.75.75 0 0 1 1.5 0c0 5.79 4.71 10.5 10.5 10.5 4.938 0 9.363-3.336 10.522-7.934a.75.75 0 0 1 1.455.368C22.652 20.187 17.615 24 12 24zM23.25 12.75a.75.75 0 0 1-.75-.75c0-5.79-4.71-10.5-10.5-10.5-4.938 0-9.363 3.336-10.522 7.934a.752.752 0 0 1-1.456-.368C1.348 3.813 6.385 0 12 0c6.617 0 12 5.383 12 12a.75.75 0 0 1-.75.75z"/></svg>