<svg xmlns="http://www.w3.org/2000/svg" width="16" height="16" viewBox="0 0 24 24"><path d="M23.655 5.621A1.749 1.749 0 0 0 22.318 5H7.794c-.857 0-1.583.613-1.726 1.458l-1.608 9.5A1.746 1.746 0 0 0 6.185 18h14.524c.857 0 1.583-.613 1.726-1.458l1.608-9.5a1.746 1.746 0 0 0-.388-1.421zM21.51 9.55l-6.35 2.63c-.27.12-.57.17-.86.17-.34 0-.68-.07-.99-.23L7.54 9.28l.26-1.54 6.17 3.04c.19.09.42.1.62.02l7.21-2.99zm2.21-1.1.08-.5c.04.18.01.35-.08.5zM4 8H1a1 1 0 1 1 0-2h3a1 1 0 1 1 0 2zM3 12H1a1 1 0 1 1 0-2h2a1 1 0 1 1 0 2zM2 16H1a1 1 0 1 1 0-2h1a1 1 0 1 1 0 2z"/></svg>