<svg xmlns="http://www.w3.org/2000/svg" xml:space="preserve" width="32" height="32" viewBox="0 0 24 24"><path fill="#8CC03E" d="M9.414 21.027c-.616.357-.733.399-1.312.604-.14.048-.352.133.08.381l2.9 1.738c.277.163.597.248.912.248l.002.002c.319 0 .634-.086.911-.248l8.682-5.077c.564-.333.912-.948.912-1.605V6.922c0-.662-.347-1.277-.912-1.605L12.907.235a1.884 1.884 0 0 0-1.824 0L2.411 5.312A1.865 1.865 0 0 0 1.5 6.917v10.148c0 .662.347 1.277.911 1.605l2.275 1.329c1.1.553 1.494.553 1.997.553 1.631 0 2.571-1 2.571-2.743V7.785A.253.253 0 0 0 9 7.533H7.9a.25.25 0 0 0-.254.252v10.019c0 .776-.79 1.543-2.083.891l-2.378-1.391a.266.266 0 0 1-.135-.234V6.922c0-.099.052-.195.136-.243l8.672-5.077a.267.267 0 0 1 .268 0l8.677 5.072a.285.285 0 0 1 .136.243V17.07c0 .094-.051.19-.131.238l-8.682 5.077a.267.267 0 0 1-.268 0L9.63 21.047c-.066-.043-.15-.058-.216-.02z"/><path fill="#8CC03E" d="M14.674 15.469c-2.298 0-2.802-.586-2.97-1.743a.25.25 0 0 0-.249-.214h-1.123a.249.249 0 0 0-.249.252c0 1.481.794 3.248 4.596 3.248 2.744-.005 4.325-1.104 4.325-3.019l-.003.001c0-1.9-1.269-2.405-3.934-2.762-2.698-.362-2.97-.548-2.97-1.186 0-.528.231-1.233 2.228-1.233 1.782 0 2.44.39 2.712 1.609.023.115.127.2.245.2h1.128c.07 0 .136-.028.183-.081a.271.271 0 0 0 .066-.195c-.174-2.1-1.551-3.076-4.334-3.076-2.477 0-3.953 1.058-3.953 2.833 0 1.924 1.471 2.458 3.845 2.695 2.844.282 3.064.705 3.064 1.272.002.981-.778 1.399-2.607 1.399z"/></svg>