<svg xmlns="http://www.w3.org/2000/svg" xml:space="preserve" width="128" height="128" viewBox="0 0 24 24"><path fill="#ECEFF1" d="M2.133 2.112V24H16c1.472 0 2.667-1.184 2.667-2.645V2.667c0-.736.299-1.397.779-1.888A2.684 2.684 0 0 1 21.333 0H4.267C3.093 0 2.133.949 2.133 2.112z"/><path fill="#607D8B" d="M18.667 2.667v1.557H23a1 1 0 0 0 1-1v-.557A2.666 2.666 0 0 0 21.333 0c-.736 0-1.397.299-1.888.779a2.686 2.686 0 0 0-.778 1.888zM1 19.019a1 1 0 0 0-1 1v1.869C0 23.051.96 24 2.133 24H16a2.689 2.689 0 0 1-1.888-.779 2.6 2.6 0 0 1-.779-1.867v-1.336a1 1 0 0 0-1-1H1z"/><path fill="#39B54A" d="M17.5 24c-3.584 0-6.5-2.916-6.5-6.5s2.916-6.5 6.5-6.5 6.5 2.916 6.5 6.5-2.916 6.5-6.5 6.5z"/><path fill="#FFF" d="M19.896 20.896a.998.998 0 0 1-.624-.219l-2.396-1.917a1 1 0 0 1-.375-.781v-3.354a1 1 0 0 1 2 0v2.874l2.021 1.617a.999.999 0 0 1-.626 1.78z"/><path fill="#B0BEC5" d="M10.21 14.25H5.8a1 1 0 0 1 0-2h4.41a1 1 0 0 1 0 2zM14.31 10.25H5.8a1 1 0 0 1 0-2h8.51a1 1 0 0 1 0 2zM15.25 6.25H5.803a1 1 0 0 1 0-2h9.447a1 1 0 0 1 0 2z"/></svg>