<svg xmlns="http://www.w3.org/2000/svg" width="128" height="128" viewBox="0 0 24 24"><path fill="#FA7369" d="M3.25 2c0-.967.783-1.75 1.75-1.75h10c.967 0 1.75.783 1.75 1.75v7H14a1.5 1.5 0 0 0 0 3h2.75v7A1.75 1.75 0 0 1 15 20.75H5A1.75 1.75 0 0 1 3.25 19V2Z"/><path fill="#F44336" fill-rule="evenodd" d="M5.65.852a1.75 1.75 0 0 0-2.4 1.625v16.846c0 .716.436 1.36 1.1 1.625l5.5 2.2a1.75 1.75 0 0 0 2.4-1.625V4.677a1.75 1.75 0 0 0-1.1-1.625l-5.5-2.2Z"/><path fill="#486472" fill-rule="evenodd" d="M17.798 7.93a.75.75 0 0 1 1.057.082l1.714 2a.75.75 0 0 1 0 .976l-1.714 2a.75.75 0 0 1-1.139-.976l.653-.762H14a.75.75 0 0 1 0-1.5h4.37l-.654-.762a.75.75 0 0 1 .082-1.057Z"/></svg>