<svg xmlns="http://www.w3.org/2000/svg" xml:space="preserve" width="128" height="128" viewBox="0 0 24 24"><path fill="#90A4AE" d="M16 22h-2v-2h-4v2H8a1 1 0 0 0 0 2h8a1 1 0 1 0 0-2z"/><path fill="#64B5F6" d="M14.25 4a.75.75 0 0 1-.75-.75v-1.5a.25.25 0 0 0-.25-.25h-2.5a.25.25 0 0 0-.25.25v1.5a.75.75 0 0 1-1.5 0v-1.5C9 .785 9.785 0 10.75 0h2.5C14.215 0 15 .785 15 1.75v1.5a.75.75 0 0 1-.75.75z"/><path fill="#2196F3" d="M16.25 10.5h-8.5C6.785 10.5 6 9.715 6 8.75v-4.5c0-.965.785-1.75 1.75-1.75h8.5c.965 0 1.75.785 1.75 1.75v4.5c0 .965-.785 1.75-1.75 1.75z"/><path fill="#64B5F6" d="M6 5.5h12V7H6z"/><path fill="#64B5F6" d="M12 8a.75.75 0 0 1-.75-.75v-2a.75.75 0 0 1 1.5 0v2A.75.75 0 0 1 12 8z"/><path fill="#607D8B" d="M24 5.75v12.5c0 .96-.79 1.75-1.75 1.75H1.75C.79 20 0 19.21 0 18.25V5.75C0 4.79.79 4 1.75 4h2.78c-.01.08-.03.16-.03.25V6H2v12h20V6h-2.5V4.25c0-.09-.02-.17-.03-.25h2.78c.96 0 1.75.79 1.75 1.75z"/><path fill="#F5F5F5" d="M22 6v12H2V6h2.5v2.75C4.5 10.54 5.96 12 7.75 12h8.5c1.79 0 3.25-1.46 3.25-3.25V6H22z"/></svg>