<svg xmlns="http://www.w3.org/2000/svg" width="16" height="16" viewBox="0 0 24 24"><g fill-rule="evenodd"><path d="M7.182 4c0-.69.56-1.25 1.25-1.25h6.25V5.5a2.75 2.75 0 0 0 2.75 2.75h3.25V20c0 .69-.56 1.25-1.25 1.25h-5.5a.75.75 0 0 0 0 1.5h5.5a2.75 2.75 0 0 0 2.75-2.75V7.5a.75.75 0 0 0-.22-.53l-5.5-5.5a.75.75 0 0 0-.53-.22h-7.5A2.75 2.75 0 0 0 5.682 4v6.5a.75.75 0 0 0 1.5 0V4Z"/><path d="M8.432 13.697a3.182 3.182 0 1 1 0 6.364 3.182 3.182 0 0 1 0-6.364Zm4.682 3.182a4.682 4.682 0 1 0-9.364 0 4.682 4.682 0 0 0 9.364 0Z"/><path d="M6.03 19.402a.75.75 0 0 0-1.06 0l-3 3a.75.75 0 0 0 1.06 1.06l3-3a.75.75 0 0 0 0-1.06Z"/></g></svg>