<svg xmlns="http://www.w3.org/2000/svg" xml:space="preserve" width="128" height="128" viewBox="0 0 24 24"><path fill="#ECEFF1" d="M9.5 17.5c0-4.242 3.322-7.714 7.5-7.975V2.75A2.752 2.752 0 0 0 14.25 0H2.75A2.752 2.752 0 0 0 0 2.75v15.5A2.752 2.752 0 0 0 2.75 21h7.567a7.941 7.941 0 0 1-.817-3.5z"/><circle cx="8.5" cy="5" r="2" fill="#90A4AE"/><path fill="#4CAF50" d="M17.5 24c-3.584 0-6.5-2.916-6.5-6.5s2.916-6.5 6.5-6.5 6.5 2.916 6.5 6.5-2.916 6.5-6.5 6.5z"/><path fill="#90A4AE" d="M9.09 15H5a1 1 0 0 1 0-2h4.09a1 1 0 0 1 0 2zM8 18H5a1 1 0 0 1 0-2h3a1 1 0 0 1 0 2zM12.496 11.268c0-.006.004-.011.004-.018v-.5A2.752 2.752 0 0 0 9.75 8h-2.5a2.752 2.752 0 0 0-2.75 2.75v.5c0 .414.336.75.75.75h6.456c.247-.261.51-.507.79-.732z"/><path fill="#FFF" d="m15.793 20.207-2-2a.999.999 0 1 1 1.414-1.414l1.244 1.244 2.796-3.196a1.001 1.001 0 0 1 1.505 1.317l-3.5 4a.999.999 0 0 1-1.459.049z"/></svg>