<svg xmlns="http://www.w3.org/2000/svg" xml:space="preserve" width="128" height="128" viewBox="0 0 24 24"><path d="M18.25 23H3.75A2.752 2.752 0 0 1 1 20.25V5.75A2.752 2.752 0 0 1 3.75 3h9.5a.75.75 0 0 1 0 1.5h-9.5c-.689 0-1.25.561-1.25 1.25v14.5c0 .689.561 1.25 1.25 1.25h14.5c.689 0 1.25-.561 1.25-1.25v-9.5a.75.75 0 0 1 1.5 0v9.5A2.752 2.752 0 0 1 18.25 23zM22.25 9a.75.75 0 0 1-.75-.75V2.5h-5.75a.75.75 0 0 1 0-1.5h6.5a.75.75 0 0 1 .75.75v6.5a.75.75 0 0 1-.75.75z"/><path d="M10.75 14a.75.75 0 0 1-.53-1.281l11.5-11.5a.75.75 0 1 1 1.061 1.061l-11.5 11.5a.748.748 0 0 1-.531.22z"/></svg>