<svg xmlns="http://www.w3.org/2000/svg" xml:space="preserve" width="128" height="128" viewBox="0 0 24 24"><path d="M12 23a.746.746 0 0 1-.534-.224l-9.594-9.722c-2.491-2.522-2.491-6.629 0-9.153A6.323 6.323 0 0 1 6.403 2c1.712 0 3.321.675 4.531 1.901L12 4.98l1.065-1.08c1.21-1.225 2.819-1.9 4.531-1.9s3.322.675 4.532 1.901c2.491 2.524 2.491 6.631 0 9.154l-9.594 9.721A.746.746 0 0 1 12 23zM6.403 3.5a4.84 4.84 0 0 0-3.464 1.454c-1.917 1.943-1.917 5.104 0 7.047L12 21.183l9.061-9.181c1.917-1.943 1.917-5.104 0-7.048A4.843 4.843 0 0 0 17.596 3.5a4.835 4.835 0 0 0-3.463 1.454l-1.599 1.621a.773.773 0 0 1-1.067 0l-1.599-1.62A4.84 4.84 0 0 0 6.403 3.5c.001 0 .001 0 0 0z"/></svg>