<svg xmlns="http://www.w3.org/2000/svg" width="128" height="128" viewBox="0 0 24 24"><path fill="#eceff1" d="M17.097 14.453A5.756 5.756 0 0 1 19 18.727v4.023a.75.75 0 0 1-.75.75H5.75a.75.75 0 0 1-.75-.75v-4.023c0-1.628.693-3.186 1.903-4.274l1.693-1.523c.267-.241.414-.571.414-.93s-.147-.689-.414-.929L6.903 9.547A5.756 5.756 0 0 1 5 5.273V1.25A.75.75 0 0 1 5.75.5h12.5a.75.75 0 0 1 .75.75v4.023a5.755 5.755 0 0 1-1.903 4.274l-1.693 1.523c-.267.241-.414.571-.414.93s.147.689.414.929z"/><path fill="#ffc107" d="M8.75 23.25v-2.42c0-.402.232-.78.655-1.064l2.165-1.458c.119-.08.275-.12.431-.12s.312.04.431.12l2.165 1.458c.422.284.655.662.655 1.064v2.42zM14.896 7.414 12.53 9.78c-.146.147-.338.22-.53.22s-.384-.073-.53-.22L9.104 7.414A3.743 3.743 0 0 1 8 4.75.75.75 0 0 1 8.75 4h6.5a.75.75 0 0 1 .75.75 3.743 3.743 0 0 1-1.104 2.664z"/><path d="M20.25 1.5H3.75a.75.75 0 0 1 0-1.5h16.5a.75.75 0 0 1 0 1.5zM20.25 24H3.75a.75.75 0 0 1 0-1.5h16.5a.75.75 0 0 1 0 1.5z"/><path d="M15.25 24a.75.75 0 0 1-.75-.75v-1.672c0-.329-.134-.651-.366-.884L12 18.561l-2.134 2.134a1.258 1.258 0 0 0-.366.883v1.672a.75.75 0 0 1-1.5 0v-1.672c0-.734.286-1.425.806-1.944l2.664-2.664a.75.75 0 0 1 1.061 0l2.664 2.664c.52.52.806 1.21.806 1.944v1.672a.752.752 0 0 1-.751.75zM12 10a.744.744 0 0 1-.53-.22L9.104 7.414A3.741 3.741 0 0 1 8 4.75.75.75 0 0 1 8.75 4h6.5a.75.75 0 0 1 .75.75 3.741 3.741 0 0 1-1.104 2.664L12.53 9.78A.744.744 0 0 1 12 10zM9.629 5.5c.112.318.294.612.535.854L12 8.189l1.836-1.836c.241-.241.423-.535.535-.854H9.629z"/><path d="M5.75 24a.75.75 0 0 1-.75-.75v-4.523c0-1.627.693-3.185 1.903-4.273l1.693-1.524c.268-.24.414-.569.414-.929s-.146-.688-.414-.929L6.903 9.547A5.758 5.758 0 0 1 5 5.273V.75a.75.75 0 0 1 1.5 0v4.523c0 1.202.513 2.354 1.407 3.158L9.6 9.955c.578.521.91 1.266.91 2.044s-.332 1.523-.91 2.044l-1.693 1.524a4.26 4.26 0 0 0-1.407 3.16v4.523a.75.75 0 0 1-.75.75zM18.25 24a.75.75 0 0 1-.75-.75v-4.523a4.255 4.255 0 0 0-1.407-3.158L14.4 14.045c-.578-.521-.91-1.266-.91-2.044s.332-1.523.91-2.044l1.693-1.524a4.26 4.26 0 0 0 1.407-3.16V.75a.75.75 0 0 1 1.5 0v4.523a5.754 5.754 0 0 1-1.903 4.273l-1.693 1.524c-.268.24-.414.569-.414.929s.146.688.414.929l1.693 1.524A5.762 5.762 0 0 1 19 18.727v4.523a.75.75 0 0 1-.75.75z"/></svg>