<svg xmlns="http://www.w3.org/2000/svg" width="128" height="128" viewBox="0 0 24 24"><path fill="#4caf50" d="M14.371 16.871c-.566.567-1.32.879-2.121.879s-1.555-.312-2.121-.879l-4.25-4.25C5.312 12.055 5 11.301 5 10.5s.312-1.555.879-2.121C6.445 7.812 7.199 7.5 8 7.5s1.555.312 2.121.879l2.129 2.128 5.877-5.877A10.947 10.947 0 0 0 11 2C4.925 2 0 6.925 0 13s4.925 11 11 11 11-4.925 11-11c0-1.137-.173-2.233-.493-3.265z"/><path fill="#2196f3" d="M12.25 15.75a.997.997 0 0 1-.707-.293l-4.25-4.25a.999.999 0 1 1 1.414-1.414l3.543 3.543L22.293 3.293a.999.999 0 1 1 1.414 1.414l-10.75 10.75a.997.997 0 0 1-.707.293z"/></svg>