<svg xmlns="http://www.w3.org/2000/svg" xml:space="preserve" width="16" height="16" viewBox="0 0 24 24"><path d="M17.25 2H16V1a1 1 0 1 0-2 0v1H6V1a1 1 0 1 0-2 0v1H2.75A2.752 2.752 0 0 0 0 4.75V16c0 1.654 1.346 3 3 3h5a1 1 0 1 0 0-2H3c-.552 0-1-.449-1-1V8h16a1 1 0 1 0 2 0V4.75A2.752 2.752 0 0 0 17.25 2z"/><path d="M17.5 11c-3.584 0-6.5 2.916-6.5 6.5s2.916 6.5 6.5 6.5 6.5-2.916 6.5-6.5-2.916-6.5-6.5-6.5zm3.006 5.405-3.25 3.75c-.182.21-.443.334-.72.345H16.5a1 1 0 0 1-.707-.293l-1.75-1.75a.999.999 0 1 1 1.414-1.414l.991.991 2.546-2.938a1 1 0 0 1 1.512 1.309z"/></svg>