<svg xmlns="http://www.w3.org/2000/svg" xml:space="preserve" width="16" height="16" viewBox="0 0 24 24"><path d="M12 21C8.242 21 4.484 19.577.752 16.731a1.895 1.895 0 0 1-.333-2.7c7.565-9.375 15.595-9.375 23.16 0a1.893 1.893 0 0 1-.332 2.699C19.517 19.577 15.758 21 12 21zm-9.952-5.799c6.695 5.065 13.208 5.065 19.903 0-3.36-4.134-6.708-6.23-9.952-6.23s-6.591 2.095-9.951 6.23z"/><path d="M12 17.5c-1.93 0-3.5-1.57-3.5-3.5s1.57-3.5 3.5-3.5 3.5 1.57 3.5 3.5-1.57 3.5-3.5 3.5zM12 5.53a1 1 0 0 1-1-1V4a1 1 0 0 1 2 0v.53a1 1 0 0 1-1 1zM5.161 7.33a.996.996 0 0 1-.817-.423l-.41-.58a.999.999 0 1 1 1.633-1.154l.41.58a1 1 0 0 1-.816 1.577zM18.839 7.33a1 1 0 0 1-.815-1.578l.41-.58a1 1 0 1 1 1.633 1.155l-.41.58a1 1 0 0 1-.818.423zM1.349 11.21a.988.988 0 0 1-.513-.143l-.35-.21a1 1 0 1 1 1.029-1.715l.35.21a1 1 0 0 1-.516 1.858zM22.651 11.21a1 1 0 0 1-.515-1.858l.35-.21a1.001 1.001 0 0 1 1.029 1.715l-.35.21a.997.997 0 0 1-.514.143z"/></svg>