<svg xmlns="http://www.w3.org/2000/svg" xmlns:xlink="http://www.w3.org/1999/xlink" width="128" height="128" viewBox="0 0 24 24"><defs><path id="e" d="M6.901 5.452a.75.75 0 0 0 .599.298H17a.75.75 0 0 0 .721-.956l-.585-2.05A2.75 2.75 0 0 0 14.49.75H10.01a2.75 2.75 0 0 0-2.645 1.995L6.78 4.794a.75.75 0 0 0 .122.658ZM8.494 4.25l.313-1.093a1.25 1.25 0 0 1 1.202-.907h4.482c.558 0 1.049.37 1.202.907l.313 1.093H8.494Z"/><path id="a" d="M4.925 6.754a.75.75 0 0 1 .821.671l1.32 13.2A1.25 1.25 0 0 0 8.31 21.75h7.38a1.25 1.25 0 0 0 1.244-1.126l1.32-13.199a.75.75 0 1 1 1.492.15l-1.32 13.199a2.75 2.75 0 0 1-2.736 2.476H8.31a2.75 2.75 0 0 1-2.736-2.476l-1.32-13.2a.75.75 0 0 1 .671-.82Z"/><path id="c" d="M14.5 8.25a.75.75 0 0 1 .75.75v8a.75.75 0 0 1-1.5 0V9a.75.75 0 0 1 .75-.75Z"/><path id="b" d="M2.75 5a.75.75 0 0 1 .75-.75h17a.75.75 0 0 1 0 1.5h-17A.75.75 0 0 1 2.75 5Z"/><path id="d" d="M9.5 8.25a.75.75 0 0 0-.75.75v8a.75.75 0 0 0 1.5 0V9a.75.75 0 0 0-.75-.75Z"/></defs><g fill-rule="evenodd"><use xlink:href="#a"/><use xlink:href="#b"/><use xlink:href="#c"/><use xlink:href="#d"/><use xlink:href="#e"/><use xlink:href="#a"/><use xlink:href="#b"/><use xlink:href="#c"/><use xlink:href="#d"/><use xlink:href="#e"/></g></svg>